# Blender 4.5.4 LTS
# www.blender.org
mtllib building.mtl
o Stylised_low_poly_building
v 2.473188 0.000000 3.085573
v 1.836698 3.500000 3.085572
v -2.191362 0.000000 3.085570
v -1.554872 3.500000 3.085570
v 2.473191 0.000000 -1.860076
v 1.836701 3.500000 -1.223587
v -2.191359 0.000000 -1.860079
v -1.554870 3.500000 -1.223589
v 2.473188 3.500000 3.085573
v -2.191362 3.500000 3.085570
v -2.191362 3.500000 3.085570
v -2.191359 3.500000 -1.860079
v 2.473191 3.500000 -1.860076
v 2.473188 3.500000 3.085573
v -2.191362 4.039363 3.085570
v -2.191359 4.039363 -1.860079
v 2.473191 4.039363 -1.860076
v 2.473188 4.039363 3.085573
v -1.554872 4.039363 3.085570
v -1.554870 4.039363 -1.223589
v 1.836701 4.039363 -1.223587
v 1.836698 4.039363 3.085572
v -1.834985 3.134477 3.085570
v 2.116811 3.134477 3.085572
v 2.116811 3.433113 3.085572
v 2.051501 3.500000 3.085572
v 2.116811 3.472295 3.085572
v 2.089758 3.500000 3.085572
v -1.769675 3.500000 3.085570
v -1.834985 3.433113 3.085570
v -1.807932 3.500000 3.085570
v -1.834985 3.472295 3.085570
v 2.116809 2.428826 5.669977
v 1.997486 2.395852 5.790744
v 2.116809 2.409510 5.740720
v 2.067384 2.395852 5.790744
v -1.715664 2.395852 5.790742
v -1.834986 2.428826 5.669974
v -1.785561 2.395852 5.790741
v -1.834986 2.409510 5.740717
v 1.927364 2.778577 5.727741
v 2.051499 2.812973 5.601768
v 2.000081 2.778577 5.727740
v 2.051499 2.792824 5.675561
v 1.997094 2.694520 5.790744
v 2.116809 2.727615 5.669528
v 2.067221 2.694519 5.790745
v 2.116809 2.708228 5.740535
v 2.089756 2.802639 5.639614
v 1.966852 2.768500 5.764647
v 2.089756 2.782641 5.712857
v 2.038848 2.768500 5.764647
v 2.116809 2.767157 5.668143
v 1.995888 2.733682 5.790744
v 2.116809 2.747548 5.739962
v 2.066722 2.733682 5.790745
v -1.834986 2.727615 5.669525
v -1.715272 2.694520 5.790742
v -1.834986 2.708228 5.740532
v -1.785399 2.694519 5.790742
v -1.769676 2.812973 5.601767
v -1.645542 2.778577 5.727738
v -1.769676 2.792824 5.675559
v -1.718258 2.778577 5.727738
v -1.714065 2.733682 5.790742
v -1.834986 2.767157 5.668140
v -1.784899 2.733682 5.790743
v -1.834987 2.747548 5.739959
v -1.685030 2.768500 5.764645
v -1.807934 2.802639 5.639612
v -1.757026 2.768500 5.764645
v -1.807934 2.782641 5.712854
v 1.924722 0.000000 5.613439
v 1.924722 2.749773 5.613439
v -1.758925 2.749773 5.613437
v -1.758925 0.000000 5.613437
v -1.656293 2.749773 5.613437
v -1.656293 0.000000 5.613437
v -1.758925 2.749773 5.716068
v -1.758925 0.000000 5.716068
v -1.656293 2.749773 5.716068
v -1.656293 0.000000 5.716068
v -1.834985 3.174756 3.827908
v -1.834986 2.806455 5.228023
v -1.834985 2.931837 4.525886
v -1.834986 2.507910 5.227177
v -1.834985 2.875709 3.829091
v -1.834985 2.633116 4.526136
v -1.769676 2.884238 5.196939
v -1.769675 3.254103 3.788005
v -1.769675 3.009020 4.488117
v -1.834985 3.215116 3.824420
v -1.834986 2.845280 5.230547
v -1.834985 2.971220 4.525114
v -1.807934 2.877443 5.218128
v -1.807933 3.248388 3.806683
v -1.807933 3.003260 4.509212
v 2.116810 3.174756 3.827910
v 2.116809 2.806455 5.228026
v 2.116810 2.931837 4.525888
v 2.116810 2.875709 3.829093
v 2.116809 2.507910 5.227180
v 2.116810 2.633116 4.526139
v 2.089758 3.248388 3.806685
v 2.089757 2.877443 5.218131
v 2.089757 3.003260 4.509214
v 2.051500 3.254103 3.788007
v 2.051499 2.884238 5.196940
v 2.051500 3.009020 4.488119
v 2.116810 3.215117 3.824423
v 2.116809 2.845280 5.230550
v 2.116810 2.971220 4.525116
v 2.027353 2.749773 5.613439
v 2.027353 0.000000 5.613439
v 1.924722 2.749773 5.716071
v 1.924722 0.000000 5.716071
v 2.027353 2.749773 5.716071
v 2.027353 0.000000 5.716071
v -2.191361 1.115744 1.464717
v -2.191361 2.264253 1.464717
v -2.191362 2.264253 2.197808
v -2.191362 1.109635 2.197808
v -2.494434 1.204604 1.554320
v -2.593163 1.933765 1.554320
v -2.593164 1.933765 2.197808
v -2.494435 1.199988 2.108204
v -2.191361 2.264253 1.404910
v -2.191362 2.264253 2.257615
v -2.645904 1.890385 1.404909
v -2.645905 1.890385 2.257614
v -2.191361 2.326467 1.404910
v -2.191362 2.326467 2.257615
v -2.645904 1.952598 1.404909
v -2.645905 1.952598 2.257614
v -2.593163 1.115744 1.464716
v -2.593163 1.933765 1.464716
v -2.593164 1.109635 2.197808
v -2.593164 1.933765 2.108204
v -2.593163 1.204604 1.554320
v -2.494434 1.933765 1.554320
v -2.593164 1.199988 2.108204
v -2.494435 1.933765 2.108204
v -2.265631 2.637970 2.096850
v -2.265631 2.594841 1.992729
v -2.265631 2.637970 1.888608
v -2.265631 2.742091 1.845480
v -2.265631 2.846212 1.888608
v -2.265631 2.889341 1.992729
v -2.265631 2.846212 2.096850
v -2.265631 2.742091 2.139979
v -2.176731 2.677764 2.057056
v -2.265631 2.651119 1.992729
v -2.176731 2.677764 1.928403
v -2.265631 2.742091 1.901757
v -2.176731 2.806418 1.928403
v -2.265631 2.833063 1.992729
v -2.176731 2.806418 2.057056
v -2.265631 2.742091 2.083701
v -2.191362 2.594841 1.992729
v -2.191362 2.742091 1.845480
v -2.191362 2.889341 1.992729
v -2.191362 2.742091 2.139979
v -2.191362 2.637970 1.888608
v -2.191362 2.637970 2.096850
v -2.191362 2.846212 1.888608
v -2.191362 2.846212 2.096850
v -2.176731 2.742091 2.083701
v -2.265631 2.806418 2.057056
v -2.176731 2.833063 1.992729
v -2.265631 2.806418 1.928403
v -2.176731 2.742091 1.901757
v -2.265631 2.677764 1.928403
v -2.176731 2.651119 1.992729
v -2.265631 2.677764 2.057056
v -2.265631 2.637970 1.447776
v -2.265631 2.594841 1.343655
v -2.265630 2.637970 1.239534
v -2.265630 2.742091 1.196406
v -2.265630 2.846212 1.239534
v -2.265631 2.889341 1.343655
v -2.265631 2.846212 1.447776
v -2.265631 2.742091 1.490905
v -2.176731 2.677764 1.407982
v -2.265631 2.651119 1.343655
v -2.176730 2.677764 1.279329
v -2.265630 2.742091 1.252683
v -2.176730 2.806418 1.279329
v -2.265631 2.833063 1.343655
v -2.176731 2.806418 1.407982
v -2.265631 2.742091 1.434627
v -2.191361 2.594841 1.343655
v -2.191361 2.742091 1.196406
v -2.191361 2.889341 1.343655
v -2.191361 2.742091 1.490905
v -2.191361 2.637970 1.239534
v -2.191361 2.637970 1.447776
v -2.191361 2.846212 1.239534
v -2.191361 2.846212 1.447776
v -2.176731 2.742091 1.434627
v -2.265631 2.806418 1.407982
v -2.176731 2.833063 1.343655
v -2.265630 2.806418 1.279329
v -2.176730 2.742091 1.252683
v -2.265630 2.677764 1.279329
v -2.176731 2.651119 1.343655
v -2.265631 2.677764 1.407982
v -2.265630 2.637970 0.798703
v -2.265630 2.594841 0.694582
v -2.265630 2.637970 0.590460
v -2.265630 2.742091 0.547332
v -2.265630 2.846212 0.590460
v -2.265630 2.889341 0.694582
v -2.265630 2.846212 0.798703
v -2.265630 2.742091 0.841832
v -2.176730 2.677764 0.758909
v -2.265630 2.651119 0.694582
v -2.176730 2.677764 0.630255
v -2.265630 2.742091 0.603610
v -2.176730 2.806418 0.630255
v -2.265630 2.833063 0.694582
v -2.176730 2.806418 0.758909
v -2.265630 2.742091 0.785554
v -2.191361 2.594841 0.694582
v -2.191361 2.742091 0.547332
v -2.191361 2.889341 0.694582
v -2.191361 2.742091 0.841832
v -2.191361 2.637970 0.590460
v -2.191361 2.637970 0.798703
v -2.191361 2.846212 0.590460
v -2.191361 2.846212 0.798703
v -2.176730 2.742091 0.785554
v -2.265630 2.806418 0.758909
v -2.176730 2.833063 0.694582
v -2.265630 2.806418 0.630255
v -2.176730 2.742091 0.603610
v -2.265630 2.677764 0.630255
v -2.176730 2.651119 0.694582
v -2.265630 2.677764 0.758909
v -2.265630 2.637970 0.149629
v -2.265630 2.594841 0.045508
v -2.265630 2.637970 -0.058613
v -2.265630 2.742091 -0.101741
v -2.265630 2.846212 -0.058613
v -2.265630 2.889341 0.045508
v -2.265630 2.846212 0.149629
v -2.265630 2.742091 0.192758
v -2.176730 2.677764 0.109835
v -2.265630 2.651119 0.045508
v -2.176730 2.677764 -0.018818
v -2.265630 2.742091 -0.045464
v -2.176730 2.806418 -0.018818
v -2.265630 2.833063 0.045508
v -2.176730 2.806418 0.109835
v -2.265630 2.742091 0.136480
v -2.191360 2.594841 0.045508
v -2.191360 2.742091 -0.101741
v -2.191360 2.889341 0.045508
v -2.191361 2.742091 0.192758
v -2.191360 2.637970 -0.058613
v -2.191360 2.637970 0.149629
v -2.191360 2.846212 -0.058613
v -2.191360 2.846212 0.149629
v -2.176730 2.742091 0.136480
v -2.265630 2.806418 0.109835
v -2.176730 2.833063 0.045508
v -2.265630 2.806418 -0.018818
v -2.176730 2.742091 -0.045464
v -2.265630 2.677764 -0.018818
v -2.176730 2.651119 0.045508
v -2.265630 2.677764 0.109835
v -2.265630 2.637970 -0.499444
v -2.265629 2.594841 -0.603566
v -2.265629 2.637970 -0.707687
v -2.265629 2.742091 -0.750815
v -2.265629 2.846212 -0.707687
v -2.265629 2.889341 -0.603566
v -2.265630 2.846212 -0.499444
v -2.265630 2.742091 -0.456315
v -2.176729 2.677764 -0.539238
v -2.265629 2.651119 -0.603566
v -2.176729 2.677764 -0.667892
v -2.265629 2.742091 -0.694538
v -2.176729 2.806418 -0.667892
v -2.265629 2.833063 -0.603566
v -2.176729 2.806418 -0.539238
v -2.265630 2.742091 -0.512594
v -2.191360 2.594841 -0.603566
v -2.191360 2.742091 -0.750815
v -2.191360 2.889341 -0.603566
v -2.191360 2.742091 -0.456315
v -2.191360 2.637970 -0.707687
v -2.191360 2.637970 -0.499444
v -2.191360 2.846212 -0.707687
v -2.191360 2.846212 -0.499444
v -2.176729 2.742091 -0.512594
v -2.265630 2.806418 -0.539238
v -2.176729 2.833063 -0.603566
v -2.265629 2.806418 -0.667892
v -2.176729 2.742091 -0.694538
v -2.265629 2.677764 -0.667892
v -2.176729 2.651119 -0.603566
v -2.265630 2.677764 -0.539238
v -2.265629 2.637970 -1.148518
v -2.265629 2.594841 -1.252639
v -2.265629 2.637970 -1.356760
v -2.265629 2.742091 -1.399888
v -2.265629 2.846212 -1.356760
v -2.265629 2.889341 -1.252639
v -2.265629 2.846212 -1.148518
v -2.265629 2.742091 -1.105389
v -2.176729 2.677764 -1.188312
v -2.265629 2.651119 -1.252639
v -2.176729 2.677764 -1.316965
v -2.265629 2.742091 -1.343611
v -2.176729 2.806418 -1.316965
v -2.265629 2.833063 -1.252639
v -2.176729 2.806418 -1.188312
v -2.265629 2.742091 -1.161667
v -2.191360 2.594841 -1.252639
v -2.191360 2.742091 -1.399888
v -2.191360 2.889341 -1.252639
v -2.191360 2.742091 -1.105389
v -2.191360 2.637970 -1.356760
v -2.191360 2.637970 -1.148518
v -2.191360 2.846212 -1.356760
v -2.191360 2.846212 -1.148518
v -2.176729 2.742091 -1.161667
v -2.265629 2.806418 -1.188312
v -2.176729 2.833063 -1.252639
v -2.265629 2.806418 -1.316965
v -2.176729 2.742091 -1.343611
v -2.265629 2.677764 -1.316965
v -2.176729 2.651119 -1.252639
v -2.265629 2.677764 -1.188312
v -0.002591 0.000000 3.085571
v -0.002591 2.200000 3.085571
v 1.193192 2.200000 3.085572
v 1.193192 0.000000 3.085572
v 0.117296 2.080112 3.203079
v 0.117296 0.000000 3.279798
v 1.193192 0.000000 3.279798
v 1.073304 2.080112 3.203080
v -0.002591 2.200000 3.279798
v -0.002591 0.000000 3.279798
v 1.193192 2.200000 3.279798
v 1.073304 0.000000 3.279798
v 0.117296 2.080112 3.279798
v 0.117296 0.000000 3.203079
v 1.073304 2.080112 3.279798
v 1.073304 0.000000 3.203080
v -0.186524 3.254103 3.788006
v -0.337931 3.009020 4.488118
v -0.568459 2.970612 4.488117
v -0.939572 3.009020 4.488117
v -1.307714 2.884238 5.196939
v -1.126303 2.845830 5.196939
v -0.758858 2.884238 5.196939
v 1.068261 3.009020 4.488118
v 0.684022 2.967154 4.488118
v 0.207207 3.009020 4.488118
v 1.680653 3.254103 3.788006
v 1.425253 3.212237 3.788006
v 1.064904 3.254103 3.788006
v -0.041093 2.884238 5.196939
v 0.167228 2.842372 5.196939
v 0.457548 2.884238 5.196939
v -0.428008 2.778577 5.727739
vn -0.0000 -0.0000 1.0000
vn -1.0000 -0.0000 -0.0000
vn -0.0000 -0.0000 -1.0000
vn 1.0000 -0.0000 -0.0000
vn -0.0000 1.0000 -0.0000
vn -0.4037 0.8915 0.2056
vn -0.0265 0.9810 0.1919
vn -0.0329 0.9836 0.1772
vn -0.4372 0.8856 0.1570
vn 0.8851 0.4394 0.1531
vn 0.3365 0.8891 0.3104
vn 0.3601 0.8808 0.3075
vn 0.9180 0.3745 0.1305
vn -0.3602 0.8808 0.3075
vn 0.0085 0.9439 0.3301
vn 0.0050 0.9439 0.3302
vn -0.3365 0.8891 0.3104
vn -0.9180 0.3745 0.1305
vn -0.8851 0.4394 0.1531
vn -0.9217 0.3766 0.0934
vn -0.9319 0.3570 0.0636
vn -0.0000 0.3161 0.9487
vn -0.0000 0.8270 0.5622
vn 0.0022 0.9738 0.2273
vn 0.0394 0.9675 0.2496
vn -0.0088 0.9424 0.3344
vn -0.0085 0.9439 0.3302
vn 0.3865 0.0024 0.9223
vn 0.3531 0.3310 0.8751
vn 0.9243 0.0030 0.3817
vn 0.8248 0.3716 0.4262
vn 0.9217 0.3766 0.0934
vn -0.3531 0.3310 0.8751
vn -0.3865 0.0024 0.9223
vn -0.8248 0.3716 0.4262
vn -0.9243 0.0030 0.3817
vn 0.1089 0.8180 0.5648
vn 0.3800 0.8644 0.3292
vn 0.4037 0.8915 0.2056
vn -0.1089 0.8180 0.5648
vn -0.3800 0.8644 0.3292
vn -0.0011 0.9733 0.2294
vn -0.0008 0.9712 0.2382
vn -0.0009 0.9713 0.2377
vn 0.0317 0.9802 0.1956
vn 0.0434 0.9633 0.2649
vn 0.0318 0.9663 0.2554
vn 0.9000 0.0003 0.4360
vn 0.3604 0.0002 0.9328
vn -0.9000 0.0003 0.4360
vn -0.3604 0.0002 0.9328
vn 0.9319 0.3570 0.0636
vn -0.0019 0.9427 0.3338
vn 0.0457 0.9244 0.3788
vn 0.4372 0.8856 0.1570
vn 0.0355 0.9832 0.1791
vn 0.0685 0.9721 0.2245
vn -0.9334 0.3495 0.0816
vn -0.4009 0.8870 0.2292
vn -0.0010 0.9641 0.2656
vn 0.9334 0.3495 0.0816
vn 0.4009 0.8870 0.2292
vn 0.0010 0.9641 0.2656
vn 0.0551 0.9549 0.2917
vn -0.0000 -1.0000 -0.0083
vn -0.6352 0.7723 -0.0000
vn 0.6352 -0.7723 -0.0000
vn -0.0000 1.0000 0.0083
vn -0.0000 -0.3827 0.9239
vn -0.0000 0.3827 -0.9239
vn -0.0000 0.9239 -0.3827
vn -0.0000 -0.9239 0.3827
vn -0.0000 0.9239 0.3827
vn -0.0000 -0.9239 -0.3827
vn -0.0000 0.3827 0.9239
vn -0.0000 -0.3827 -0.9239
vn -0.0000 -1.0000 -0.0000
vn 0.0050 0.9889 0.1482
vn -0.0518 0.9887 0.1409
vn 0.0882 0.9666 0.2407
vn -0.0227 0.9660 0.2576
vn -0.0663 0.9709 0.2303
vn 0.0462 0.9582 0.2824
vn -0.0099 0.9930 0.1176
vn -0.0070 0.9683 0.2495
vn -0.0581 0.9899 0.1294
vn -0.0630 0.9780 0.1987
vn -0.0212 0.9414 0.3365
vn -0.0690 0.9545 0.2903
vt 0.069207 0.729965
vt 0.068419 0.776424
vt 0.069207 0.746840
vt 0.070769 0.791527
vt 0.070769 0.791527
vt 0.053392 0.791142
vt 0.069266 0.746000
vt 0.068959 0.746583
s 1
usemtl pixel_texture
f 1/1/1 9/1/1 10/1/1 3/1/1
f 3/1/2 11/1/2 12/1/2 7/1/2
f 7/1/3 12/1/3 13/1/3 5/1/3
f 5/1/4 13/1/4 14/1/4 1/1/4
f 8/1/5 4/1/5 2/1/5 6/1/5
f 6/1/2 2/1/2 22/1/2 21/1/2
f 13/1/3 12/1/3 16/1/3 17/1/3
f 2/1/1 14/1/1 18/1/1 22/1/1
f 19/1/5 20/1/5 16/1/5 15/1/5
f 20/1/5 21/1/5 17/1/5 16/1/5
f 21/1/5 22/1/5 18/1/5 17/1/5
f 4/1/4 8/1/4 20/1/4 19/1/4
f 14/1/4 13/1/4 17/1/4 18/1/4
f 11/1/1 4/1/1 19/1/1 15/1/1
f 8/1/1 6/1/1 21/1/1 20/1/1
f 12/1/2 11/1/2 15/1/2 16/1/2
f 82/2/1 81/2/1 79/2/1 80/2/1
f 58/3/1 37/3/1 34/3/1 45/3/1
f 70/3/6 61/3/7 89/3/8 95/3/9
f 27/4/10 28/5/11 104/4/12 110/4/13
f 84/3/2 86/3/2 38/3/2 57/3/2
f 96/4/14 90/4/15 29/4/16 31/4/17
f 92/4/18 96/4/14 31/4/17 32/4/19
f 66/3/20 70/3/6 95/3/9 93/3/21
f 45/3/1 54/3/22 65/3/22 58/3/1
f 54/3/22 50/3/23 69/3/23 65/3/22
f 69/3/23 367/3/24 62/3/25
f 28/5/11 26/4/26 107/4/27 104/4/12
f 54/3/22 45/3/1 47/3/28 56/3/29
f 56/3/29 47/3/28 48/3/30 55/3/31
f 55/3/31 48/3/30 46/3/4 53/3/32
f 58/3/1 65/3/22 67/3/33 60/3/34
f 60/3/34 67/3/33 68/3/35 59/3/36
f 59/3/36 68/3/35 66/3/20 57/3/2
f 50/3/23 54/3/22 56/3/29 52/3/37
f 52/3/37 56/3/29 55/3/31 51/3/38
f 51/3/38 55/3/31 53/3/32 49/3/39
f 65/3/22 69/3/23 71/3/40 67/3/33
f 67/3/33 71/3/40 72/3/41 68/3/35
f 68/3/35 72/3/41 70/3/6 66/3/20
f 41/3/42 50/3/23 52/3/37 43/3/43
f 43/3/43 52/3/37 51/3/38 44/3/44
f 44/3/44 51/3/38 49/3/39 42/3/45
f 69/3/23 62/3/25 64/3/46 71/3/40
f 71/3/40 64/3/46 63/3/47 72/3/41
f 72/3/41 63/3/47 61/3/7 70/3/6
f 33/3/4 46/3/4 48/3/30 35/3/48
f 35/3/48 48/3/30 47/3/28 36/3/49
f 36/3/49 47/3/28 45/3/1 34/3/1
f 57/3/2 38/3/2 40/3/50 59/3/36
f 59/3/36 40/3/50 39/3/51 60/3/34
f 60/3/34 39/3/51 37/3/1 58/3/1
f 99/3/4 111/3/52 53/3/32 46/3/4
f 46/3/4 33/3/4 102/3/4 99/3/4
f 26/4/26 351/4/53 363/4/54
f 83/4/2 92/4/18 32/4/19 30/4/2
f 57/3/2 66/3/20 93/3/21 84/3/2
f 25/4/4 27/4/10 110/4/13 98/4/4
f 98/4/4 101/4/4 24/4/4 25/4/4
f 105/3/55 108/3/56 42/3/45 49/3/39
f 111/3/52 105/3/55 49/3/39 53/3/32
f 89/3/8 61/3/7 63/3/47 355/3/57
f 96/3/14 92/3/18 94/3/58 97/3/59
f 97/4/59 94/4/58 93/4/21 95/4/9
f 90/3/15 96/3/14 97/3/59 91/3/60
f 91/4/60 97/4/59 95/4/9 89/4/8
f 92/3/18 83/3/2 85/3/2 94/3/58
f 94/4/58 85/4/2 84/4/2 93/4/21
f 86/4/2 84/4/2 85/4/2 88/4/2
f 88/3/2 85/3/2 83/3/2 87/3/2
f 101/3/4 98/3/4 100/3/4 103/3/4
f 103/4/4 100/4/4 99/4/4 102/4/4
f 111/4/52 99/4/4 100/4/4 112/4/61
f 112/3/61 100/3/4 98/3/4 110/3/13
f 105/4/55 111/4/52 112/4/61 106/4/62
f 106/3/62 112/3/61 110/3/13 104/3/12
f 108/4/56 105/4/55 106/4/62 109/4/63
f 109/3/63 106/3/62 104/3/12 107/3/27
f 89/4/8 355/4/57 354/4/64 91/4/60
f 91/3/60 354/3/64 351/3/53 90/3/15
f 30/4/2 23/4/2 87/4/2 83/4/2
f 80/2/2 79/2/2 75/2/2 76/2/2
f 76/2/3 75/2/3 77/2/3 78/2/3
f 78/2/4 77/2/4 81/2/4 82/2/4
f 116/2/2 115/2/2 74/2/2 73/2/2
f 118/2/1 117/2/1 115/2/1 116/2/1
f 73/2/3 74/2/3 113/2/3 114/2/3
f 114/2/4 113/2/4 117/2/4 118/2/4
f 123/6/2 126/6/2 142/6/2 140/6/2
f 122/7/65 137/7/65 135/7/65 119/7/65
f 119/7/3 135/7/3 136/7/3 120/7/3
f 121/7/1 125/7/1 137/7/1 122/7/1
f 131/7/66 133/7/66 134/7/66 132/7/66
f 127/7/67 128/7/67 130/7/67 129/7/67
f 128/7/1 132/7/1 134/7/1 130/7/1
f 130/7/2 134/7/2 133/7/2 129/7/2
f 129/7/3 133/7/3 131/7/3 127/7/3
f 124/7/2 136/7/2 135/7/2 139/7/2
f 139/7/2 135/7/2 137/7/2 141/7/2
f 141/7/2 137/7/2 125/7/2 138/7/2
f 140/7/1 124/7/1 139/7/1 123/7/1
f 123/7/68 139/7/68 141/7/68 126/7/68
f 126/7/3 141/7/3 138/7/3 142/7/3
f 154/7/2 170/7/2 147/7/2 146/7/2
f 156/7/2 168/7/2 149/7/2 148/7/2
f 158/7/2 174/7/2 143/7/2 150/7/2
f 174/7/2 152/7/2 144/7/2 143/7/2
f 172/7/2 154/7/2 146/7/2 145/7/2
f 170/7/2 156/7/2 148/7/2 147/7/2
f 168/7/2 158/7/2 150/7/2 149/7/2
f 164/7/69 162/7/69 150/7/69 143/7/69
f 165/7/70 160/7/70 146/7/70 147/7/70
f 161/7/71 165/7/71 147/7/71 148/7/71
f 159/7/72 164/7/72 143/7/72 144/7/72
f 166/7/73 161/7/73 148/7/73 149/7/73
f 163/7/74 159/7/74 144/7/74 145/7/74
f 162/7/75 166/7/75 149/7/75 150/7/75
f 160/7/76 163/7/76 145/7/76 146/7/76
f 152/7/2 172/7/2 145/7/2 144/7/2
f 157/7/76 167/7/76 158/7/76 168/7/76
f 155/7/72 169/7/72 156/7/72 170/7/72
f 153/7/75 171/7/75 154/7/75 172/7/75
f 151/7/71 173/7/71 152/7/71 174/7/71
f 167/7/70 151/7/70 174/7/70 158/7/70
f 169/7/74 157/7/74 168/7/74 156/7/74
f 171/7/69 155/7/69 170/7/69 154/7/69
f 173/7/73 153/7/73 172/7/73 152/7/73
f 186/7/2 202/7/2 179/7/2 178/7/2
f 188/7/2 200/7/2 181/7/2 180/7/2
f 190/7/2 206/7/2 175/7/2 182/7/2
f 206/7/2 184/7/2 176/7/2 175/7/2
f 204/7/2 186/7/2 178/7/2 177/7/2
f 202/7/2 188/7/2 180/7/2 179/7/2
f 200/7/2 190/7/2 182/7/2 181/7/2
f 196/7/69 194/7/69 182/7/69 175/7/69
f 197/7/70 192/7/70 178/7/70 179/7/70
f 193/7/71 197/7/71 179/7/71 180/7/71
f 191/7/72 196/7/72 175/7/72 176/7/72
f 198/7/73 193/7/73 180/7/73 181/7/73
f 195/7/74 191/7/74 176/7/74 177/7/74
f 194/7/75 198/7/75 181/7/75 182/7/75
f 192/7/76 195/7/76 177/7/76 178/7/76
f 184/7/2 204/7/2 177/7/2 176/7/2
f 189/7/76 199/7/76 190/7/76 200/7/76
f 187/7/72 201/7/72 188/7/72 202/7/72
f 185/7/75 203/7/75 186/7/75 204/7/75
f 183/7/71 205/7/71 184/7/71 206/7/71
f 199/7/70 183/7/70 206/7/70 190/7/70
f 201/7/74 189/7/74 200/7/74 188/7/74
f 203/7/69 187/7/69 202/7/69 186/7/69
f 205/7/73 185/7/73 204/7/73 184/7/73
f 218/7/2 234/7/2 211/7/2 210/7/2
f 220/7/2 232/7/2 213/7/2 212/7/2
f 222/7/2 238/7/2 207/7/2 214/7/2
f 238/7/2 216/7/2 208/7/2 207/7/2
f 236/7/2 218/7/2 210/7/2 209/7/2
f 234/7/2 220/7/2 212/7/2 211/7/2
f 232/7/2 222/7/2 214/7/2 213/7/2
f 228/7/69 226/7/69 214/7/69 207/7/69
f 229/7/70 224/7/70 210/7/70 211/7/70
f 225/7/71 229/7/71 211/7/71 212/7/71
f 223/7/72 228/7/72 207/7/72 208/7/72
f 230/7/73 225/7/73 212/7/73 213/7/73
f 227/7/74 223/7/74 208/7/74 209/7/74
f 226/7/75 230/7/75 213/7/75 214/7/75
f 224/7/76 227/7/76 209/7/76 210/7/76
f 216/7/2 236/7/2 209/7/2 208/7/2
f 221/7/76 231/7/76 222/7/76 232/7/76
f 219/7/72 233/7/72 220/7/72 234/7/72
f 217/7/75 235/7/75 218/7/75 236/7/75
f 215/7/71 237/7/71 216/7/71 238/7/71
f 231/7/70 215/7/70 238/7/70 222/7/70
f 233/7/74 221/7/74 232/7/74 220/7/74
f 235/7/69 219/7/69 234/7/69 218/7/69
f 237/7/73 217/7/73 236/7/73 216/7/73
f 250/7/2 266/7/2 243/7/2 242/7/2
f 252/7/2 264/7/2 245/7/2 244/7/2
f 254/7/2 270/7/2 239/7/2 246/7/2
f 270/7/2 248/7/2 240/7/2 239/7/2
f 268/7/2 250/7/2 242/7/2 241/7/2
f 266/7/2 252/7/2 244/7/2 243/7/2
f 264/7/2 254/7/2 246/7/2 245/7/2
f 260/7/69 258/7/69 246/7/69 239/7/69
f 261/7/70 256/7/70 242/7/70 243/7/70
f 257/7/71 261/7/71 243/7/71 244/7/71
f 255/7/72 260/7/72 239/7/72 240/7/72
f 262/7/73 257/7/73 244/7/73 245/7/73
f 259/7/74 255/7/74 240/7/74 241/7/74
f 258/7/75 262/7/75 245/7/75 246/7/75
f 256/7/76 259/7/76 241/7/76 242/7/76
f 248/7/2 268/7/2 241/7/2 240/7/2
f 253/7/76 263/7/76 254/7/76 264/7/76
f 251/7/72 265/7/72 252/7/72 266/7/72
f 249/7/75 267/7/75 250/7/75 268/7/75
f 247/7/71 269/7/71 248/7/71 270/7/71
f 263/7/70 247/7/70 270/7/70 254/7/70
f 265/7/74 253/7/74 264/7/74 252/7/74
f 267/7/69 251/7/69 266/7/69 250/7/69
f 269/7/73 249/7/73 268/7/73 248/7/73
f 282/7/2 298/7/2 275/7/2 274/7/2
f 284/7/2 296/7/2 277/7/2 276/7/2
f 286/7/2 302/7/2 271/7/2 278/7/2
f 302/7/2 280/7/2 272/7/2 271/7/2
f 300/7/2 282/7/2 274/7/2 273/7/2
f 298/7/2 284/7/2 276/7/2 275/7/2
f 296/7/2 286/7/2 278/7/2 277/7/2
f 292/7/69 290/7/69 278/7/69 271/7/69
f 293/7/70 288/7/70 274/7/70 275/7/70
f 289/7/71 293/7/71 275/7/71 276/7/71
f 287/7/72 292/7/72 271/7/72 272/7/72
f 294/7/73 289/7/73 276/7/73 277/7/73
f 291/7/74 287/7/74 272/7/74 273/7/74
f 290/7/75 294/7/75 277/7/75 278/7/75
f 288/7/76 291/7/76 273/7/76 274/7/76
f 280/7/2 300/7/2 273/7/2 272/7/2
f 285/7/76 295/7/76 286/7/76 296/7/76
f 283/7/72 297/7/72 284/7/72 298/7/72
f 281/7/75 299/7/75 282/7/75 300/7/75
f 279/7/71 301/7/71 280/7/71 302/7/71
f 295/7/70 279/7/70 302/7/70 286/7/70
f 297/7/74 285/7/74 296/7/74 284/7/74
f 299/7/69 283/7/69 298/7/69 282/7/69
f 301/7/73 281/7/73 300/7/73 280/7/73
f 314/7/2 330/7/2 307/7/2 306/7/2
f 316/7/2 328/7/2 309/7/2 308/7/2
f 318/7/2 334/7/2 303/7/2 310/7/2
f 334/7/2 312/7/2 304/7/2 303/7/2
f 332/7/2 314/7/2 306/7/2 305/7/2
f 330/7/2 316/7/2 308/7/2 307/7/2
f 328/7/2 318/7/2 310/7/2 309/7/2
f 324/7/69 322/7/69 310/7/69 303/7/69
f 325/7/70 320/7/70 306/7/70 307/7/70
f 321/7/71 325/7/71 307/7/71 308/7/71
f 319/7/72 324/7/72 303/7/72 304/7/72
f 326/7/73 321/7/73 308/7/73 309/7/73
f 323/7/74 319/7/74 304/7/74 305/7/74
f 322/7/75 326/7/75 309/7/75 310/7/75
f 320/7/76 323/7/76 305/7/76 306/7/76
f 312/7/2 332/7/2 305/7/2 304/7/2
f 317/7/76 327/7/76 318/7/76 328/7/76
f 315/7/72 329/7/72 316/7/72 330/7/72
f 313/7/75 331/7/75 314/7/75 332/7/75
f 311/7/71 333/7/71 312/7/71 334/7/71
f 327/7/70 311/7/70 334/7/70 318/7/70
f 329/7/74 317/7/74 328/7/74 316/7/74
f 331/7/69 315/7/69 330/7/69 314/7/69
f 333/7/73 313/7/73 332/7/73 312/7/73
f 338/1/3 335/1/3 336/1/3 337/1/3
f 350/8/1 342/8/1 339/8/1 348/8/1
f 336/1/2 335/1/2 344/1/2 343/1/2
f 338/1/4 337/1/4 345/1/4 341/1/4
f 337/1/5 336/1/5 343/1/5 345/1/5
f 340/1/1 347/1/1 343/1/1 344/1/1
f 347/1/1 349/1/1 345/1/1 343/1/1
f 349/1/1 346/1/1 341/1/1 345/1/1
f 348/1/4 339/1/4 347/1/4 340/1/4
f 339/1/77 342/1/77 349/1/77 347/1/77
f 342/1/2 350/1/2 346/1/2 349/1/2
f 355/3/57 63/3/47 64/3/46 62/3/25 356/3/78
f 356/3/78 62/3/25 357/3/79
f 357/3/79 62/3/25 367/3/24 364/3/80
f 354/4/64 355/4/57 356/4/78 353/4/81
f 353/4/81 356/4/78 357/4/79 352/4/82
f 352/4/82 357/4/79 364/5/80 360/4/83
f 351/3/53 354/3/64 353/3/81
f 353/3/81 352/3/82 351/3/53
f 352/3/82 360/3/83 363/3/54 351/3/53
f 50/3/23 41/3/42 367/3/24 69/3/23
f 360/4/83 364/5/80 365/5/84 359/4/85
f 359/4/85 365/5/84 366/5/86 358/4/87
f 358/4/87 366/5/86 108/4/56 109/4/63
f 364/3/80 367/3/24 365/3/84
f 365/3/84 367/3/24 366/3/86
f 366/3/86 367/3/24 41/3/42 43/3/43 44/3/44 42/3/45 108/3/56
f 26/4/26 363/4/54 362/4/88
f 362/4/88 361/4/89 26/4/26
f 361/4/89 107/4/27 26/4/26
f 363/3/54 360/3/83 359/3/85 362/3/88
f 362/3/88 359/3/85 358/3/87 361/3/89
f 361/3/89 358/3/87 109/3/63 107/3/27
f 29/4/16 90/4/15 351/4/53 26/4/26
