# Blender 4.5.4 LTS
# www.blender.org
mtllib go.mtl
o go
v -3.012334 0.052344 3.922819
v -3.012334 3.492168 3.922819
v -3.285566 -0.103660 -5.086012
v -3.285566 3.648171 -5.086012
v 3.012334 0.052344 3.922819
v 3.012334 3.492168 3.922819
v 3.285566 -0.103660 -5.086012
v 3.285566 3.648171 -5.086012
v -3.285566 -0.103660 3.922819
v -3.285566 3.648171 3.922819
v 3.285566 3.648171 3.922819
v 3.285566 -0.103660 3.922819
v -3.012334 0.052344 -4.693666
v -3.012334 3.492168 -4.693666
v 3.012334 3.492168 -4.693666
v 3.012334 0.052344 -4.693666
vn -1.0000 -0.0000 -0.0000
vn -0.0000 -0.0000 -1.0000
vn 1.0000 -0.0000 -0.0000
vn -0.0000 -1.0000 -0.0000
vn -0.0000 1.0000 -0.0000
vn -0.0000 -0.0000 1.0000
vt 0.375000 0.000000
vt 0.625000 0.000000
vt 0.625000 0.250000
vt 0.375000 0.250000
vt 0.625000 0.500000
vt 0.375000 0.500000
vt 0.625000 0.750000
vt 0.375000 0.750000
vt 0.614605 0.760395
vt 0.614605 0.989605
vt 0.125000 0.500000
vt 0.125000 0.750000
vt 0.875000 0.500000
vt 0.875000 0.750000
vt 0.385395 0.989605
vt 0.625000 1.000000
vt 0.375000 1.000000
vt 0.385395 0.760395
s 0
f 9/1/1 10/2/1 4/3/1 3/4/1
f 3/4/2 4/3/2 8/5/2 7/6/2
f 7/6/3 8/5/3 11/7/3 12/8/3
f 6/9/4 2/10/4 14/10/4 15/9/4
f 3/11/4 7/6/4 12/8/4 9/12/4
f 8/5/5 4/13/5 10/14/5 11/7/5
f 1/15/6 2/10/6 10/16/6 9/17/6
f 6/9/6 5/18/6 12/8/6 11/7/6
f 5/18/6 1/15/6 9/17/6 12/8/6
f 2/10/6 6/9/6 11/7/6 10/16/6
f 16/18/6 15/9/6 14/10/6 13/15/6
f 5/18/1 6/9/1 15/9/1 16/18/1
f 1/15/5 5/18/5 16/18/5 13/15/5
f 2/10/3 1/15/3 13/15/3 14/10/3
