# Blender 4.5.4 LTS
# www.blender.org
mtllib wheel.mtl
o sw
v 0.671566 1.296544 -0.377380
v 0.761674 1.361251 -0.379312
v 0.727993 1.466965 -0.378590
v 0.617068 1.467592 -0.376212
v 0.582195 1.362265 -0.375464
v 0.671720 1.348554 -0.383932
v 0.718442 1.375397 -0.403124
v 0.700084 1.429661 -0.400833
v 0.643563 1.429997 -0.399653
v 0.624545 1.375934 -0.401083
v 0.939249 1.432409 -0.422875
v 0.896962 1.465604 -0.421968
v 0.445249 1.468862 -0.412285
v 0.403576 1.436273 -0.411392
v 0.674596 1.629489 -0.343217
v 0.604215 1.619411 -0.341709
v 0.539932 1.589030 -0.340331
v 0.487457 1.541046 -0.339206
v 0.451453 1.479723 -0.338434
v 0.435120 1.410511 -0.338084
v 0.439909 1.339557 -0.338187
v 0.465394 1.273168 -0.338733
v 0.509311 1.217242 -0.339674
v 0.567757 1.176748 -0.340927
v 0.635540 1.155285 -0.342380
v 0.706637 1.154759 -0.343904
v 0.774730 1.175217 -0.345364
v 0.833769 1.214842 -0.346629
v 0.878508 1.270113 -0.347588
v 0.904971 1.336118 -0.348156
v 0.910809 1.406992 -0.348281
v 0.895501 1.476439 -0.347953
v 0.860408 1.538288 -0.347201
v 0.808648 1.587042 -0.346091
v 0.744820 1.618371 -0.344723
v 0.674966 1.679518 -0.343225
v 0.589826 1.667325 -0.341400
v 0.512062 1.630573 -0.339733
v 0.448583 1.572527 -0.338373
v 0.405029 1.498345 -0.337439
v 0.385271 1.414618 -0.337015
v 0.391064 1.328786 -0.337139
v 0.421893 1.248474 -0.337800
v 0.475020 1.180820 -0.338939
v 0.545723 1.131835 -0.340455
v 0.627720 1.105871 -0.342212
v 0.713726 1.105235 -0.344056
v 0.796098 1.129983 -0.345822
v 0.867517 1.177917 -0.347353
v 0.921638 1.244778 -0.348513
v 0.953652 1.324625 -0.349199
v 0.960713 1.410362 -0.349351
v 0.942195 1.494372 -0.348954
v 0.899743 1.569191 -0.348044
v 0.837129 1.628169 -0.346702
v 0.759916 1.666067 -0.345046
v 0.730790 1.373206 -0.135786
v 0.676985 1.334567 -0.134633
v 0.710678 1.436329 -0.135355
v 0.644443 1.436704 -0.133935
v 0.623619 1.373811 -0.133489
v 0.698482 1.383965 -0.127110
v 0.677349 1.368789 -0.126657
v 0.690583 1.408757 -0.126941
v 0.664568 1.408904 -0.126383
v 0.656389 1.384202 -0.126208
v 0.671715 1.333312 -0.380148
v 0.726719 1.372811 -0.381327
v 0.706159 1.437341 -0.380886
v 0.638448 1.437723 -0.379435
v 0.617160 1.373430 -0.378978
v 0.671594 1.311876 -0.380145
v 0.747064 1.366072 -0.381763
v 0.718854 1.454612 -0.381158
v 0.625949 1.455137 -0.379167
v 0.596740 1.366921 -0.378541
v 0.940041 1.432409 -0.385900
v 0.897755 1.465604 -0.384993
v 0.446042 1.468862 -0.375310
v 0.404368 1.436273 -0.374417
v 0.673804 1.629489 -0.380193
v 0.603423 1.619411 -0.378684
v 0.539139 1.589030 -0.377306
v 0.486664 1.541046 -0.376181
v 0.450660 1.479723 -0.375409
v 0.434327 1.410511 -0.375059
v 0.439116 1.339557 -0.375162
v 0.464601 1.273168 -0.375708
v 0.508518 1.217242 -0.376649
v 0.566965 1.176748 -0.377902
v 0.634748 1.155285 -0.379355
v 0.705844 1.154759 -0.380879
v 0.773937 1.175217 -0.382339
v 0.832976 1.214842 -0.383605
v 0.877715 1.270113 -0.384564
v 0.904179 1.336118 -0.385131
v 0.910016 1.406992 -0.385256
v 0.894708 1.476439 -0.384928
v 0.859615 1.538288 -0.384176
v 0.807855 1.587042 -0.383066
v 0.744028 1.618371 -0.381698
v 0.674173 1.679518 -0.380201
v 0.589034 1.667325 -0.378375
v 0.511269 1.630573 -0.376708
v 0.447790 1.572527 -0.375348
v 0.404236 1.498345 -0.374414
v 0.384478 1.414618 -0.373990
v 0.390271 1.328786 -0.374115
v 0.421101 1.248474 -0.374775
v 0.474227 1.180820 -0.375914
v 0.544930 1.131835 -0.377430
v 0.626927 1.105871 -0.379188
v 0.712933 1.105235 -0.381031
v 0.795305 1.129983 -0.382797
v 0.866725 1.177917 -0.384328
v 0.920846 1.244778 -0.385488
v 0.952859 1.324625 -0.386174
v 0.959921 1.410362 -0.386326
v 0.941402 1.494372 -0.385929
v 0.898950 1.569191 -0.385019
v 0.836336 1.628169 -0.383677
v 0.759124 1.666067 -0.382022
v 0.713013 1.379317 -0.103972
v 0.677768 1.354008 -0.103217
v 0.699839 1.420666 -0.103690
v 0.656451 1.420911 -0.102760
v 0.642811 1.379714 -0.102467
v 0.726049 1.374999 -0.104252
v 0.677690 1.340272 -0.103215
v 0.707973 1.431733 -0.103864
v 0.648443 1.432069 -0.102588
v 0.629727 1.375543 -0.102187
vn -0.0074 -0.9971 -0.0764
vn 0.5811 -0.8059 0.1133
vn -0.9389 0.3119 0.1458
vn -0.9480 -0.3131 -0.0578
vn 0.5445 0.8346 -0.0831
vn 0.0481 -0.0275 -0.9985
vn -0.0914 -0.0270 -0.9954
vn 0.0214 -0.0000 0.9998
vn -0.1434 -0.2232 0.9642
vn 0.0222 0.2770 0.9606
vn 0.1821 -0.2250 0.9572
vn -0.2423 0.0871 0.9663
vn 0.2845 0.0841 0.9550
vn -0.5848 -0.7993 0.1383
vn 0.9477 0.3012 0.1054
vn 0.9411 -0.3234 -0.0983
vn -0.5380 0.8408 -0.0599
vn 0.0083 0.9921 0.1255
vn 0.0074 0.9966 0.0825
vn -0.5833 0.8108 -0.0478
vn 0.9461 -0.3138 -0.0806
vn 0.9511 0.3026 0.0623
vn -0.5884 -0.8029 0.0953
vn -0.0214 -0.0000 -0.9998
vn 0.5898 0.8042 -0.0730
vn -0.9521 -0.3031 -0.0399
vn -0.9441 0.3133 0.1029
vn 0.5828 -0.8095 0.0702
vn -0.0069 -0.9982 -0.0602
vn 0.0326 -0.0752 -0.9966
vn 0.0668 0.0281 -0.9974
vn -0.0208 0.0925 -0.9955
vn -0.1091 0.0291 -0.9936
vn -0.0761 -0.0745 -0.9943
vn 0.1227 -0.4164 -0.9009
vn -0.0130 0.6257 -0.7800
vn -0.1658 -0.4143 -0.8949
vn 0.6172 0.7867 -0.0132
vn -0.6158 0.7878 0.0132
vn -0.2847 -0.9202 -0.2686
vn 0.1366 0.9216 -0.3632
vn -0.1391 0.9231 -0.3585
vn 0.2596 -0.9246 -0.2787
vn 0.1417 -0.9899 -0.0030
vn 0.4271 -0.9042 -0.0092
vn 0.6746 -0.7381 -0.0145
vn 0.8621 -0.5064 -0.0185
vn 0.9730 -0.2297 -0.0209
vn 0.9975 0.0674 -0.0214
vn 0.9333 0.3584 -0.0200
vn 0.7862 0.6177 -0.0169
vn 0.5693 0.8221 -0.0122
vn 0.3017 0.9534 -0.0065
vn 0.0074 1.0000 -0.0002
vn -0.2876 0.9577 0.0062
vn -0.5571 0.8304 0.0119
vn -0.7770 0.6293 0.0167
vn -0.9279 0.3722 0.0199
vn -0.9964 0.0821 0.0214
vn -0.9763 -0.2153 0.0209
vn -0.8695 -0.4936 0.0186
vn -0.6854 -0.7280 0.0147
vn -0.4404 -0.8977 0.0094
vn -0.1563 -0.9877 0.0034
vn -0.1417 0.9899 0.0030
vn -0.4271 0.9042 0.0092
vn -0.6746 0.7381 0.0145
vn -0.8621 0.5064 0.0185
vn -0.9730 0.2297 0.0209
vn -0.9975 -0.0674 0.0214
vn -0.9333 -0.3584 0.0200
vn -0.7862 -0.6177 0.0169
vn -0.5693 -0.8221 0.0122
vn -0.3017 -0.9534 0.0065
vn -0.0074 -1.0000 0.0002
vn 0.2876 -0.9577 -0.0062
vn 0.5571 -0.8304 -0.0119
vn 0.7770 -0.6293 -0.0167
vn 0.9279 -0.3722 -0.0199
vn 0.9964 -0.0821 -0.0214
vn 0.9763 0.2153 -0.0209
vn 0.8695 0.4936 -0.0186
vn 0.6854 0.7280 -0.0147
vn 0.4404 0.8977 -0.0094
vn 0.1563 0.9877 -0.0034
vt 0.000000 0.000000
s 0
f 8/1/1 64/1/1 65/1/1 9/1/1
f 2/1/2 57/1/2 58/1/2 1/1/2
f 5/1/3 61/1/3 60/1/3 4/1/3
f 7/1/4 62/1/4 64/1/4 8/1/4
f 10/1/5 66/1/5 63/1/5 6/1/5
f 10/1/6 14/1/6 13/1/6 9/1/6
f 8/1/7 12/1/7 11/1/7 7/1/7
f 30/1/8 51/1/8 52/1/8 31/1/8
f 23/1/8 44/1/8 45/1/8 24/1/8
f 16/1/8 37/1/8 38/1/8 17/1/8
f 31/1/8 52/1/8 53/1/8 32/1/8
f 24/1/8 45/1/8 46/1/8 25/1/8
f 17/1/8 38/1/8 39/1/8 18/1/8
f 32/1/8 53/1/8 54/1/8 33/1/8
f 25/1/8 46/1/8 47/1/8 26/1/8
f 18/1/8 39/1/8 40/1/8 19/1/8
f 33/1/8 54/1/8 55/1/8 34/1/8
f 26/1/8 47/1/8 48/1/8 27/1/8
f 19/1/8 40/1/8 41/1/8 20/1/8
f 34/1/8 55/1/8 56/1/8 35/1/8
f 27/1/8 48/1/8 49/1/8 28/1/8
f 20/1/8 41/1/8 42/1/8 21/1/8
f 35/1/8 56/1/8 36/1/8 15/1/8
f 28/1/8 49/1/8 50/1/8 29/1/8
f 21/1/8 42/1/8 43/1/8 22/1/8
f 29/1/8 50/1/8 51/1/8 30/1/8
f 22/1/8 43/1/8 44/1/8 23/1/8
f 15/1/8 36/1/8 37/1/8 16/1/8
f 58/1/9 63/1/9 66/1/9 61/1/9
f 60/1/10 65/1/10 64/1/10 59/1/10
f 57/1/11 62/1/11 63/1/11 58/1/11
f 61/1/12 66/1/12 65/1/12 60/1/12
f 59/1/13 64/1/13 62/1/13 57/1/13
f 1/1/14 58/1/14 61/1/14 5/1/14
f 3/1/15 59/1/15 57/1/15 2/1/15
f 9/1/16 65/1/16 66/1/16 10/1/16
f 6/1/17 63/1/17 62/1/17 7/1/17
f 4/1/18 60/1/18 59/1/18 3/1/18
f 74/1/19 75/1/19 131/1/19 130/1/19
f 68/1/20 67/1/20 124/1/20 123/1/20
f 71/1/21 70/1/21 126/1/21 127/1/21
f 73/1/22 74/1/22 130/1/22 128/1/22
f 76/1/23 72/1/23 129/1/23 132/1/23
f 76/1/8 75/1/8 79/1/8 80/1/8
f 74/1/8 73/1/8 77/1/8 78/1/8
f 96/1/24 97/1/24 118/1/24 117/1/24
f 89/1/24 90/1/24 111/1/24 110/1/24
f 82/1/24 83/1/24 104/1/24 103/1/24
f 97/1/24 98/1/24 119/1/24 118/1/24
f 90/1/24 91/1/24 112/1/24 111/1/24
f 83/1/24 84/1/24 105/1/24 104/1/24
f 98/1/24 99/1/24 120/1/24 119/1/24
f 91/1/24 92/1/24 113/1/24 112/1/24
f 84/1/24 85/1/24 106/1/24 105/1/24
f 99/1/24 100/1/24 121/1/24 120/1/24
f 92/1/24 93/1/24 114/1/24 113/1/24
f 85/1/24 86/1/24 107/1/24 106/1/24
f 100/1/24 101/1/24 122/1/24 121/1/24
f 93/1/24 94/1/24 115/1/24 114/1/24
f 86/1/24 87/1/24 108/1/24 107/1/24
f 101/1/24 81/1/24 102/1/24 122/1/24
f 94/1/24 95/1/24 116/1/24 115/1/24
f 87/1/24 88/1/24 109/1/24 108/1/24
f 95/1/24 96/1/24 117/1/24 116/1/24
f 88/1/24 89/1/24 110/1/24 109/1/24
f 81/1/24 82/1/24 103/1/24 102/1/24
f 124/1/8 127/1/8 132/1/8 129/1/8
f 126/1/8 125/1/8 130/1/8 131/1/8
f 123/1/8 124/1/8 129/1/8 128/1/8
f 127/1/8 126/1/8 131/1/8 132/1/8
f 125/1/8 123/1/8 128/1/8 130/1/8
f 67/1/25 71/1/25 127/1/25 124/1/25
f 69/1/26 68/1/26 123/1/26 125/1/26
f 75/1/27 76/1/27 132/1/27 131/1/27
f 72/1/28 73/1/28 128/1/28 129/1/28
f 70/1/29 69/1/29 125/1/29 126/1/29
f 1/1/30 67/1/30 68/1/30 2/1/30
f 2/1/31 68/1/31 69/1/31 3/1/31
f 3/1/32 69/1/32 70/1/32 4/1/32
f 4/1/33 70/1/33 71/1/33 5/1/33
f 5/1/34 71/1/34 67/1/34 1/1/34
f 7/1/35 73/1/35 72/1/35 6/1/35
f 9/1/36 75/1/36 74/1/36 8/1/36
f 6/1/37 72/1/37 76/1/37 10/1/37
f 12/1/38 78/1/38 77/1/38 11/1/38
f 14/1/39 80/1/39 79/1/39 13/1/39
f 10/1/40 76/1/40 80/1/40 14/1/40
f 13/1/41 79/1/41 75/1/41 9/1/41
f 8/1/42 74/1/42 78/1/42 12/1/42
f 11/1/43 77/1/43 73/1/43 7/1/43
f 16/1/44 82/1/44 81/1/44 15/1/44
f 17/1/45 83/1/45 82/1/45 16/1/45
f 18/1/46 84/1/46 83/1/46 17/1/46
f 19/1/47 85/1/47 84/1/47 18/1/47
f 20/1/48 86/1/48 85/1/48 19/1/48
f 21/1/49 87/1/49 86/1/49 20/1/49
f 22/1/50 88/1/50 87/1/50 21/1/50
f 23/1/51 89/1/51 88/1/51 22/1/51
f 24/1/52 90/1/52 89/1/52 23/1/52
f 25/1/53 91/1/53 90/1/53 24/1/53
f 26/1/54 92/1/54 91/1/54 25/1/54
f 27/1/55 93/1/55 92/1/55 26/1/55
f 28/1/56 94/1/56 93/1/56 27/1/56
f 29/1/57 95/1/57 94/1/57 28/1/57
f 30/1/58 96/1/58 95/1/58 29/1/58
f 31/1/59 97/1/59 96/1/59 30/1/59
f 32/1/60 98/1/60 97/1/60 31/1/60
f 33/1/61 99/1/61 98/1/61 32/1/61
f 34/1/62 100/1/62 99/1/62 33/1/62
f 35/1/63 101/1/63 100/1/63 34/1/63
f 15/1/64 81/1/64 101/1/64 35/1/64
f 36/1/65 102/1/65 103/1/65 37/1/65
f 37/1/66 103/1/66 104/1/66 38/1/66
f 38/1/67 104/1/67 105/1/67 39/1/67
f 39/1/68 105/1/68 106/1/68 40/1/68
f 40/1/69 106/1/69 107/1/69 41/1/69
f 41/1/70 107/1/70 108/1/70 42/1/70
f 42/1/71 108/1/71 109/1/71 43/1/71
f 43/1/72 109/1/72 110/1/72 44/1/72
f 44/1/73 110/1/73 111/1/73 45/1/73
f 45/1/74 111/1/74 112/1/74 46/1/74
f 46/1/75 112/1/75 113/1/75 47/1/75
f 47/1/76 113/1/76 114/1/76 48/1/76
f 48/1/77 114/1/77 115/1/77 49/1/77
f 49/1/78 115/1/78 116/1/78 50/1/78
f 50/1/79 116/1/79 117/1/79 51/1/79
f 51/1/80 117/1/80 118/1/80 52/1/80
f 52/1/81 118/1/81 119/1/81 53/1/81
f 53/1/82 119/1/82 120/1/82 54/1/82
f 54/1/83 120/1/83 121/1/83 55/1/83
f 55/1/84 121/1/84 122/1/84 56/1/84
f 56/1/85 122/1/85 102/1/85 36/1/85
